<?xml version="1.0" standalone="no"?>
<!DOCTYPE svg PUBLIC "-//W3C//DTD SVG 20010904//EN"
 "http://www.w3.org/TR/2001/REC-SVG-20010904/DTD/svg10.dtd">
<svg version="1.0" xmlns="http://www.w3.org/2000/svg"
 width="375.000000pt" height="375.000000pt" viewBox="0 0 375.000000 375.000000"
 preserveAspectRatio="xMidYMid meet">
<metadata>
Created by potrace 1.14, written by Peter Selinger 2001-2017
</metadata>
<g transform="translate(0.000000,375.000000) scale(0.100000,-0.100000)"
fill="#000000" stroke="none">
<path d="M214 3722 c-20 -92 -31 -117 -47 -114 -10 2 -17 -4 -17 -12 0 -8 -8
-19 -17 -25 -15 -8 -16 -12 -4 -35 12 -22 12 -28 0 -43 -8 -10 -22 -36 -33
-58 -41 -90 -49 -104 -62 -109 -8 -3 -14 -15 -14 -26 0 -11 -4 -20 -10 -20 -5
0 -10 -9 -10 -20 0 -11 7 -20 15 -20 11 0 12 -5 5 -25 -13 -33 -11 101 -16
-1658 l-4 -1557 486 2 487 3 5 25 c2 14 5 42 6 62 1 32 5 38 23 38 12 0 23 -6
26 -12 6 -15 49 25 60 55 4 10 11 16 17 12 15 -9 32 -85 26 -115 -10 -51 2
-70 45 -70 l38 0 -1 55 c-1 33 -5 50 -10 43 -5 -8 -8 -3 -8 15 0 16 -4 26 -9
23 -5 -4 -12 8 -16 26 -22 113 -30 144 -38 149 -5 4 -10 28 -12 55 -2 27 -8
62 -14 79 -13 31 -6 101 11 122 7 9 7 18 -2 28 -7 8 -10 22 -6 30 3 9 -6 23
-27 37 -35 25 -46 73 -28 121 12 31 -6 87 -29 87 -12 0 -12 2 -1 9 10 6 11 13
2 29 -6 11 -11 35 -11 53 0 19 -7 37 -18 45 -16 12 -15 13 6 14 12 0 22 6 22
14 0 8 16 28 35 45 19 17 35 34 35 38 0 4 4 14 9 22 7 11 12 10 29 -5 16 -13
19 -21 10 -31 -7 -9 -7 -13 0 -13 6 0 13 6 16 13 3 9 8 8 18 -4 7 -8 21 -18
31 -22 9 -3 17 -12 17 -19 0 -7 15 -19 33 -27 42 -19 118 -92 115 -111 -1 -8
2 -22 7 -30 16 -25 16 -50 0 -50 -8 0 -15 -7 -15 -15 0 -9 -16 -23 -35 -32
-42 -20 -46 -35 -7 -27 25 5 27 3 29 -30 2 -26 -1 -36 -12 -36 -10 0 -15 -10
-15 -28 0 -15 -7 -37 -15 -49 -13 -19 -13 -23 0 -37 8 -8 15 -26 15 -40 0 -14
5 -26 10 -26 6 0 10 9 10 21 0 11 4 17 10 14 5 -3 7 -19 3 -35 -3 -19 -1 -30
6 -30 6 0 11 8 11 18 0 14 4 12 20 -8 11 -14 20 -30 20 -35 0 -6 10 -15 23
-20 18 -8 22 -17 20 -49 -3 -43 -18 -67 -37 -60 -22 8 -39 -23 -32 -59 5 -26
1 -40 -19 -67 -32 -43 -32 -54 0 -17 27 31 35 33 35 12 0 -9 -11 -26 -25 -39
-21 -19 -24 -28 -16 -47 10 -24 10 -24 10 4 1 15 6 27 12 27 7 0 9 -11 5 -32
-4 -18 -8 -47 -10 -64 -1 -16 -6 -36 -10 -42 -5 -9 266 -12 1183 -12 l1191 0
-2 1218 c-2 1003 -3 1107 -8 592 -3 -344 -9 -633 -13 -642 -5 -10 -26 -20 -52
-24 -24 -3 -46 -12 -49 -19 -3 -9 -22 -12 -58 -11 -59 1 -82 11 -74 32 3 7 0
16 -6 20 -7 4 -6 9 3 15 11 7 10 9 -4 9 -9 0 -26 15 -37 32 -22 37 -26 63 -8
52 6 -4 2 9 -11 29 -12 20 -20 41 -16 47 3 5 -1 23 -10 40 -10 20 -13 42 -9
70 7 46 24 44 25 -3 0 -25 2 -28 8 -13 6 16 9 17 17 5 25 -38 15 189 -10 229
-3 6 -1 14 5 18 8 4 7 9 -2 15 -8 5 -9 9 -4 9 6 0 17 -5 25 -10 8 -5 10 -10 4
-10 -8 0 -8 -10 0 -34 6 -19 14 -32 18 -30 12 7 10 -3 -4 -26 -7 -10 -9 -22
-5 -26 12 -12 17 0 22 52 2 27 1 43 -4 36 -7 -11 -10 -10 -15 3 -9 24 -8 27 6
19 6 -4 -5 14 -26 41 -20 27 -39 59 -42 72 -4 14 -14 23 -25 23 -23 0 -25 -13
-4 -30 17 -14 20 -40 5 -40 -5 0 -10 5 -10 12 0 6 -8 20 -17 30 -14 16 -15 21
-4 28 11 6 9 17 -13 54 -15 26 -25 50 -21 55 3 5 -1 12 -7 14 -10 4 -10 6 0 6
9 1 9 10 -3 38 -9 21 -21 40 -26 44 -6 3 -12 31 -14 60 -2 30 -4 62 -5 71 -1
10 -6 20 -11 24 -6 3 -8 -20 -4 -61 l5 -66 -23 28 c-23 29 -47 69 -47 78 0 17
19 0 30 -25 7 -17 15 -28 18 -25 8 8 -30 85 -39 79 -5 -3 -9 6 -9 20 0 14 -4
26 -10 26 -5 0 -8 35 -7 81 2 62 -1 83 -13 92 -26 20 -80 109 -80 132 0 13 -7
28 -15 35 -8 7 -15 17 -15 22 0 5 -8 26 -19 46 -10 20 -28 56 -40 79 -23 46
-28 103 -9 103 15 0 68 -50 68 -65 0 -7 7 -12 15 -12 18 0 20 33 3 51 -38 39
-57 67 -67 99 -7 19 -19 41 -27 48 -9 7 -12 20 -9 33 5 15 4 17 -3 7 -11 -15
-27 2 -17 19 3 5 1 19 -6 31 -8 15 -8 19 0 15 18 -11 13 2 -9 24 -11 11 -22
32 -25 47 -8 40 -83 188 -106 209 -10 9 -19 24 -19 32 0 8 -8 20 -17 27 -15
11 -15 15 -4 29 11 14 11 16 -2 16 -15 0 -29 27 -32 63 -1 9 -10 27 -21 40
-11 12 -40 61 -64 109 l-45 88 -369 0 -368 0 7 -57 c4 -32 14 -75 22 -95 10
-24 13 -51 9 -73 -4 -22 -3 -35 4 -35 5 0 10 5 10 11 0 5 5 7 11 3 6 -3 9 -17
6 -31 -3 -16 1 -27 13 -33 17 -9 39 -51 44 -83 1 -9 5 -20 9 -23 4 -4 7 -17 7
-30 0 -12 7 -24 14 -27 10 -4 14 -19 13 -46 -1 -30 4 -45 18 -55 18 -13 18
-16 5 -29 -12 -12 -127 -37 -177 -40 -7 0 -14 -6 -17 -14 -3 -7 -14 -13 -25
-13 -10 0 -22 -7 -25 -16 -3 -8 -10 -13 -15 -10 -11 7 -61 -57 -61 -79 0 -8
-7 -18 -16 -22 -15 -5 -16 -18 -11 -94 4 -49 16 -126 28 -171 12 -46 23 -93
25 -105 5 -44 16 -52 54 -39 21 6 36 19 38 30 6 30 24 42 57 41 19 -1 31 -8
33 -18 3 -16 14 -21 38 -18 7 1 11 -6 10 -16 0 -10 4 -18 11 -18 6 0 15 -3 19
-8 4 -4 22 -7 39 -7 18 0 38 -7 45 -15 7 -8 16 -12 22 -9 16 10 78 -39 78 -63
0 -12 6 -23 12 -25 9 -3 8 -9 -5 -22 -19 -19 -23 -31 -7 -21 6 3 10 1 10 -4 0
-6 7 -11 15 -11 8 0 15 -7 15 -15 0 -8 -6 -12 -14 -9 -9 3 -20 -7 -30 -26 -15
-31 -15 -32 3 -27 16 4 19 -1 18 -29 -1 -19 -5 -34 -9 -34 -4 0 -8 -8 -8 -17
0 -10 -15 -28 -34 -41 -22 -15 -32 -29 -29 -40 2 -10 -5 -26 -16 -36 -12 -11
-21 -31 -21 -45 0 -15 -13 -40 -29 -59 -17 -17 -28 -32 -26 -32 2 0 -13 -18
-34 -40 -21 -22 -43 -40 -49 -40 -7 0 -12 -4 -12 -9 0 -5 -25 -19 -55 -31 -30
-12 -55 -26 -55 -31 0 -5 -12 -4 -27 2 -38 14 -166 28 -178 19 -25 -18 -87
-30 -175 -32 -57 -1 -106 -8 -124 -17 -16 -8 -54 -17 -85 -20 -51 -6 -56 -8
-56 -31 l0 -25 240 -1 c306 0 365 -10 318 -52 -11 -9 -23 -29 -26 -44 -4 -16
-18 -31 -36 -39 -17 -8 -25 -16 -19 -20 19 -12 -175 -21 -222 -10 -64 15 -68
14 -66 -14 0 -14 5 -25 9 -25 5 0 7 -5 5 -12 -8 -23 31 -48 75 -48 65 0 216
-30 232 -47 10 -9 13 -24 8 -41 -3 -15 -6 -32 -6 -39 0 -7 -10 -13 -21 -14
-12 0 -15 -3 -8 -6 19 -8 14 -23 -8 -23 -12 0 -34 -9 -49 -21 -59 -44 -307
-30 -413 23 -56 27 -134 129 -142 185 -3 25 -1 53 5 64 13 25 5 37 -35 55 -62
28 -89 51 -80 66 3 4 -1 8 -9 8 -8 0 -22 9 -31 19 -10 10 -33 22 -52 25 -25 5
-34 12 -34 26 0 11 -4 20 -9 20 -6 0 -18 13 -27 30 -11 18 -21 25 -25 19 -11
-19 -26 -2 -34 37 -5 28 -13 39 -35 47 -18 7 -31 21 -35 36 -4 15 -14 34 -22
44 -13 14 -13 17 -2 17 10 1 9 5 -5 15 -19 14 -16 45 4 45 20 0 11 59 -11 71
l-21 11 21 15 c12 8 19 19 15 24 -3 5 -8 22 -10 37 -3 15 -16 43 -29 62 -13
19 -27 49 -31 65 -4 17 -10 35 -15 40 -4 6 -10 44 -13 85 -4 41 -9 94 -12 117
-8 59 15 239 32 254 8 6 11 21 8 33 -3 12 4 67 15 122 11 55 20 113 19 129 -2
47 31 212 52 261 21 47 66 113 87 127 7 4 13 14 13 21 0 7 9 30 19 53 11 22
17 49 14 62 -4 15 -2 20 8 16 25 -9 36 9 42 68 l6 57 -315 0 -314 -1 -6 -27z
m1686 -62 c0 -5 -2 -10 -4 -10 -3 0 -8 5 -11 10 -3 6 -1 10 4 10 6 0 11 -4 11
-10z m-1720 -120 c0 -5 -5 -10 -11 -10 -5 0 -7 5 -4 10 3 6 8 10 11 10 2 0 4
-4 4 -10z m-55 -160 c-3 -5 -10 -10 -16 -10 -5 0 -9 5 -9 10 0 6 7 10 16 10 8
0 12 -4 9 -10z m2690 -340 c3 -5 1 -10 -4 -10 -6 0 -11 5 -11 10 0 6 2 10 4
10 3 0 8 -4 11 -10z m54 -143 c1 -5 -3 -5 -9 -2 -5 3 -10 16 -9 28 0 21 1 21
9 2 5 -11 9 -24 9 -28z m103 26 c26 -31 30 -43 14 -43 -9 0 -22 14 -31 30 -17
33 -7 40 17 13z m-51 -138 c10 -43 17 -80 15 -82 -4 -5 -30 58 -28 69 1 4 -5
26 -13 49 -18 50 -19 67 -4 52 5 -5 19 -45 30 -88z m-832 56 c14 -26 -2 -31
-102 -31 l-82 0 31 19 c59 36 137 42 153 12z m-189 -49 c0 -5 -11 -14 -25 -20
-31 -14 -33 1 -2 16 28 14 27 13 27 4z m54 -78 c8 -22 8 -24 -8 -24 -18 0 -29
16 -21 30 9 15 22 12 29 -6z m1030 -19 c3 -8 1 -15 -3 -15 -5 0 -11 7 -15 15
-3 8 -1 15 3 15 5 0 11 -7 15 -15z m-84 -33 c0 -15 -2 -15 -10 -2 -13 20 -13
33 0 25 6 -3 10 -14 10 -23z m-1010 8 c12 -8 12 -10 -4 -16 -14 -5 -15 -9 -4
-15 7 -5 9 -9 3 -9 -5 0 -17 5 -25 10 -12 7 -12 10 -1 10 7 0 11 6 7 15 -6 17
2 19 24 5z m1125 -10 c3 -5 -1 -10 -10 -10 -9 0 -13 5 -10 10 3 6 8 10 10 10
2 0 7 -4 10 -10z m21 -87 c17 -18 37 -47 44 -65 8 -18 18 -39 23 -46 5 -7 7
-15 4 -18 -10 -11 -27 7 -42 43 -9 20 -18 34 -21 30 -3 -3 0 -16 7 -29 l12
-23 -22 19 c-20 19 -50 74 -66 128 -7 21 -7 22 11 8 10 -8 33 -29 50 -47z m54
-153 c0 -5 -4 -10 -10 -10 -5 0 -10 5 -10 10 0 6 5 10 10 10 6 0 10 -4 10 -10z
m-72 -38 c6 -18 -15 -14 -22 4 -4 10 -1 14 6 12 6 -2 14 -10 16 -16z m139 -44
c-3 -7 -5 -2 -5 12 0 14 2 19 5 13 2 -7 2 -19 0 -25z m-47 2 c6 -11 7 -20 2
-20 -10 0 -32 21 -32 32 0 16 19 8 30 -12z m303 -627 c-6 -2 -8 -16 -6 -31 l4
-27 -15 25 c-8 14 -15 33 -16 42 0 22 23 29 34 10 6 -10 5 -17 -1 -19z m26
-105 c-1 -33 -14 -64 -22 -51 -9 14 3 73 14 73 5 0 9 -10 8 -22z m5 -103 c-4
-8 -10 -12 -15 -9 -14 8 -10 24 6 24 9 0 12 -6 9 -15z m-42 -151 c25 -140 25
-141 57 -201 17 -33 0 -28 -31 9 -26 31 -27 32 -22 8 5 -22 3 -20 -16 9 -12
19 -25 52 -29 75 -6 31 -10 37 -16 24 -4 -10 -11 -16 -16 -13 -12 8 12 55 28
55 9 0 13 13 13 41 0 53 22 48 32 -7z m-51 -156 c9 -16 8 -19 -3 -12 -7 4 -4
-2 6 -14 24 -28 13 -41 -14 -17 -11 10 -20 31 -20 47 0 32 13 30 31 -4z
m-1873 -706 c-2 -16 -10 -28 -21 -30 -15 -3 -16 0 -7 23 5 14 10 43 11 63 l1
37 9 -34 c6 -18 9 -45 7 -59z m-48 38 c0 -5 -4 -10 -10 -10 -5 0 -10 5 -10 10
0 6 5 10 10 10 6 0 10 -4 10 -10z m55 -270 c-24 -26 -32 -18 -9 9 10 11 20 18
23 16 2 -3 -4 -14 -14 -25z m-25 -60 c0 -5 -5 -10 -11 -10 -5 0 -7 5 -4 10 3
6 8 10 11 10 2 0 4 -4 4 -10z"/>
<path d="M163 3668 c-2 -16 1 -18 10 -9 7 7 8 14 1 21 -6 6 -10 2 -11 -12z"/>
<path d="M968 3279 c-31 -3 -78 -16 -103 -28 -25 -12 -51 -21 -58 -19 -22 4
-57 -13 -68 -34 -6 -11 -9 -22 -6 -24 7 -7 108 29 139 50 15 10 47 20 70 22
24 2 63 10 87 18 38 11 41 14 20 17 -13 3 -50 2 -81 -2z"/>
<path d="M1030 3240 c0 -12 26 -31 33 -24 4 4 24 -9 46 -29 22 -19 49 -41 61
-47 17 -9 20 -17 15 -38 -4 -15 -10 -28 -15 -30 -11 -4 34 -52 49 -52 6 0 11
-5 11 -11 0 -6 -8 -8 -17 -5 -10 2 -34 7 -53 11 -35 6 -35 6 -10 -9 22 -14 23
-15 5 -16 -17 0 -15 -3 10 -21 17 -12 22 -18 12 -15 -22 7 -20 -26 3 -35 31
-14 -36 -26 -167 -32 l-133 -6 0 28 c0 33 -32 48 -51 25 -6 -8 -15 -11 -20 -8
-5 3 -6 -1 -3 -9 3 -8 -2 -17 -10 -20 -9 -4 -16 -11 -16 -18 0 -6 7 -8 16 -5
15 6 15 4 3 -10 -11 -14 -10 -19 10 -35 13 -11 31 -19 40 -19 10 0 21 -3 25
-7 4 -5 28 -15 53 -23 26 -8 49 -21 51 -29 3 -10 -1 -12 -14 -8 -14 5 -13 2 6
-14 24 -21 24 -21 3 -15 -34 11 -28 0 15 -29 26 -17 54 -26 89 -27 43 -2 50
-5 40 -16 -9 -12 -2 -13 48 -7 33 4 64 11 70 16 5 5 18 9 30 9 21 1 58 24 50
32 -3 2 13 15 36 27 28 16 39 28 34 38 -7 20 22 53 46 53 10 0 27 12 39 28 18
22 21 35 16 70 -3 25 -2 42 4 42 6 0 10 8 10 18 0 9 11 38 25 64 30 56 30 58
6 58 -10 0 -22 7 -25 16 -4 10 -14 14 -25 11 -13 -3 -21 1 -24 14 -3 12 -14
19 -29 19 -13 0 -37 12 -54 28 -66 58 -88 65 -221 67 -68 2 -123 -1 -123 -5z
m-26 -455 c19 -29 10 -32 -21 -6 -26 22 -29 31 -9 31 7 0 21 -11 30 -25z m249
4 c17 -27 1 -49 -34 -49 -26 0 -30 3 -24 18 4 9 10 25 12 35 6 21 32 19 46 -4z
m87 -39 c0 -5 -7 -10 -15 -10 -8 0 -15 5 -15 10 0 6 7 10 15 10 8 0 15 -4 15
-10z m-153 -86 c-3 -3 -12 -4 -19 -1 -8 3 -5 6 6 6 11 1 17 -2 13 -5z"/>
<path d="M2945 3107 c10 -15 20 -25 23 -22 3 3 -5 16 -17 28 l-23 22 17 -28z"/>
<path d="M978 2993 c6 -2 18 -2 25 0 6 3 1 5 -13 5 -14 0 -19 -2 -12 -5z"/>
<path d="M2985 2970 c3 -5 8 -10 11 -10 2 0 4 5 4 10 0 6 -5 10 -11 10 -5 0
-7 -4 -4 -10z"/>
<path d="M3071 2844 c0 -11 3 -14 6 -6 3 7 2 16 -1 19 -3 4 -6 -2 -5 -13z"/>
<path d="M3106 2805 c9 -40 20 -51 19 -20 -1 14 -7 31 -14 38 -10 9 -11 6 -5
-18z"/>
<path d="M3090 2754 c0 -7 7 -14 15 -18 9 -3 12 -12 8 -23 -3 -10 -2 -15 2
-10 5 4 17 0 27 -10 31 -28 20 -3 -17 35 -19 20 -35 32 -35 26z"/>
<path d="M3136 2628 c9 -28 13 -57 8 -82 -5 -30 -3 -37 7 -34 19 7 16 77 -5
122 -23 49 -28 46 -10 -6z"/>
<path d="M3743 2520 c0 -41 2 -58 4 -37 2 20 2 54 0 75 -2 20 -4 3 -4 -38z"/>
<path d="M3210 2490 c0 -5 5 -10 11 -10 5 0 7 5 4 10 -3 6 -8 10 -11 10 -2 0
-4 -4 -4 -10z"/>
<path d="M3162 2460 c0 -14 2 -19 5 -12 2 6 2 18 0 25 -3 6 -5 1 -5 -13z"/>
<path d="M1801 2401 c-11 -7 -12 -20 -5 -63 7 -44 13 -54 32 -56 20 -3 22 1
22 41 0 51 -26 93 -49 78z"/>
<path d="M3215 2340 c10 -11 20 -18 23 -15 7 6 -18 35 -31 35 -5 0 -2 -9 8
-20z"/>
<path d="M3197 2309 c-9 -33 -9 -49 2 -49 13 0 21 41 12 58 -6 11 -10 9 -14
-9z"/>
<path d="M3255 2293 c6 -73 8 -78 14 -38 7 44 3 75 -10 75 -4 0 -6 -17 -4 -37z"/>
<path d="M1800 2243 c0 -8 -4 -12 -8 -9 -5 3 -22 -7 -39 -23 -60 -55 -86 -71
-114 -71 -19 0 -29 -5 -29 -15 0 -10 -8 -7 -26 10 -35 33 -56 38 -102 26 -42
-12 -66 -33 -76 -68 -6 -17 -3 -23 8 -23 9 0 16 4 16 10 0 5 15 12 33 15 36 7
141 -27 154 -49 9 -16 51 -38 120 -64 51 -19 51 -19 89 2 41 22 74 53 74 69 0
5 -8 3 -17 -4 -15 -13 -16 -11 -9 21 20 98 21 94 -28 142 -26 26 -46 39 -46
31z"/>
<path d="M3430 1956 c0 -8 4 -17 9 -20 5 -4 7 3 4 14 -6 23 -13 26 -13 6z"/>
<path d="M3350 1923 c0 -5 7 -18 15 -29 13 -18 14 -18 8 4 -5 22 -23 41 -23
25z"/>
<path d="M3435 1910 c3 -5 8 -10 11 -10 2 0 4 5 4 10 0 6 -5 10 -11 10 -5 0
-7 -4 -4 -10z"/>
<path d="M1414 414 c-4 -14 -2 -30 3 -35 6 -6 10 3 11 26 2 41 -5 46 -14 9z"/>
<path d="M1290 229 c0 -11 5 -17 10 -14 6 3 10 13 10 21 0 8 -4 14 -10 14 -5
0 -10 -9 -10 -21z"/>
<path d="M1311 134 c0 -11 3 -14 6 -6 3 7 2 16 -1 19 -3 4 -6 -2 -5 -13z"/>
<path d="M1040 76 c0 -9 5 -16 10 -16 6 0 10 4 10 9 0 6 -4 13 -10 16 -5 3
-10 -1 -10 -9z"/>
<path d="M1225 60 c3 -5 11 -10 16 -10 6 0 7 5 4 10 -3 6 -11 10 -16 10 -6 0
-7 -4 -4 -10z"/>
</g>
</svg>
